<svg xmlns="http://www.w3.org/2000/svg" xmlns:xlink="http://www.w3.org/1999/xlink" width="1024" zoomAndPan="magnify" viewBox="0 0 768 767.999994" height="1024" preserveAspectRatio="xMidYMid meet" version="1.0"><defs><clipPath id="000c0a7795"><path d="M 279 139 L 492 139 L 492 633.5625 L 279 633.5625 Z M 279 139 " clip-rule="nonzero"/></clipPath><clipPath id="6086c7905f"><path d="M 279 139 L 492 139 L 492 633.5625 L 279 633.5625 Z M 279 139 " clip-rule="nonzero"/></clipPath></defs><path fill="#000000" d="M 208.460938 563.316406 C 197.933594 563.316406 190.917969 559.804688 183.898438 552.777344 L 43.554688 412.285156 C 29.519531 398.234375 29.519531 377.164062 43.554688 363.113281 L 183.898438 222.621094 C 197.933594 208.570312 218.984375 208.570312 233.019531 222.621094 C 247.054688 236.667969 247.054688 257.742188 233.019531 271.792969 L 117.234375 387.699219 L 233.019531 503.605469 C 247.054688 517.65625 247.054688 538.730469 233.019531 552.777344 C 226.003906 559.804688 218.984375 563.316406 208.460938 563.316406 Z M 208.460938 563.316406 " fill-opacity="1" fill-rule="nonzero"/><path fill="#000000" d="M 559.324219 563.316406 C 548.796875 563.316406 541.78125 559.804688 534.761719 552.777344 C 520.730469 538.730469 520.730469 517.65625 534.761719 503.605469 L 650.546875 387.699219 L 534.761719 271.792969 C 520.730469 257.742188 520.730469 236.667969 534.761719 222.621094 C 548.796875 208.570312 569.851562 208.570312 583.882812 222.621094 L 724.230469 363.113281 C 738.265625 377.164062 738.265625 398.234375 724.230469 412.285156 L 583.882812 552.777344 C 576.867188 559.804688 569.851562 563.316406 559.324219 563.316406 Z M 559.324219 563.316406 " fill-opacity="1" fill-rule="nonzero"/><g clip-path="url(#000c0a7795)"><path fill="#000000" d="M 313.71875 633.5625 C 310.210938 633.5625 306.703125 633.5625 303.191406 630.050781 C 285.648438 623.023438 275.125 605.464844 282.140625 584.390625 L 422.488281 162.910156 C 429.503906 145.347656 447.046875 134.8125 468.097656 141.835938 C 485.640625 148.859375 496.167969 166.421875 489.152344 187.496094 L 348.804688 608.976562 C 341.789062 623.023438 327.753906 633.5625 313.71875 633.5625 Z M 313.71875 633.5625 " fill-opacity="1" fill-rule="nonzero"/></g><path fill="#000000" d="M 208.460938 563.316406 C 197.933594 563.316406 190.917969 559.804688 183.898438 552.777344 L 43.554688 412.285156 C 29.519531 398.234375 29.519531 377.164062 43.554688 363.113281 L 183.898438 222.621094 C 197.933594 208.570312 218.984375 208.570312 233.019531 222.621094 C 247.054688 236.667969 247.054688 257.742188 233.019531 271.792969 L 117.234375 387.699219 L 233.019531 503.605469 C 247.054688 517.65625 247.054688 538.730469 233.019531 552.777344 C 226.003906 559.804688 218.984375 563.316406 208.460938 563.316406 Z M 208.460938 563.316406 " fill-opacity="1" fill-rule="nonzero"/><path fill="#000000" d="M 559.324219 563.316406 C 548.796875 563.316406 541.78125 559.804688 534.761719 552.777344 C 520.730469 538.730469 520.730469 517.65625 534.761719 503.605469 L 650.546875 387.699219 L 534.761719 271.792969 C 520.730469 257.742188 520.730469 236.667969 534.761719 222.621094 C 548.796875 208.570312 569.851562 208.570312 583.882812 222.621094 L 724.230469 363.113281 C 738.265625 377.164062 738.265625 398.234375 724.230469 412.285156 L 583.882812 552.777344 C 576.867188 559.804688 569.851562 563.316406 559.324219 563.316406 Z M 559.324219 563.316406 " fill-opacity="1" fill-rule="nonzero"/><g clip-path="url(#6086c7905f)"><path fill="#000000" d="M 313.71875 633.5625 C 310.210938 633.5625 306.703125 633.5625 303.191406 630.050781 C 285.648438 623.023438 275.125 605.464844 282.140625 584.390625 L 422.488281 162.910156 C 429.503906 145.347656 447.046875 134.8125 468.097656 141.835938 C 485.640625 148.859375 496.167969 166.421875 489.152344 187.496094 L 348.804688 608.976562 C 341.789062 623.023438 327.753906 633.5625 313.71875 633.5625 Z M 313.71875 633.5625 " fill-opacity="1" fill-rule="nonzero"/></g></svg>